<svg width="61" height="80" viewBox="0 0 61 80" fill="none" xmlns="http://www.w3.org/2000/svg">
<path d="M54.2313 0H5.87313C3.18657 0 0.5 0 0.5 5.37313V74.3284C0.5 78.806 3.18657 79.7015 5.87313 79.7015H55.1269C59.6045 79.7015 60.5 77.0149 60.5 72.5373V5.37313C60.5 1.79104 57.8134 0 54.2313 0ZM30.0522 77.0149C29.3397 77.0149 28.6564 76.7319 28.1525 76.228C27.6487 75.7242 27.3657 75.0409 27.3657 74.3284C27.3657 73.6158 27.6487 72.9325 28.1525 72.4287C28.6564 71.9248 29.3397 71.6418 30.0522 71.6418C31.8433 71.6418 33.6343 72.5373 33.6343 74.3284C33.6343 76.1194 31.8433 77.0149 30.0522 77.0149ZM55.1269 68.9552H5.87313L4.08209 6.26866H56.9179L55.1269 68.9552Z" fill="#E6007D"/>
</svg>
