<svg width="60" height="79" viewBox="0 0 60 79" fill="none" xmlns="http://www.w3.org/2000/svg">
<path d="M42.8125 19H15.625C13.75 19 10 19 10 23.6875V74.3125C10 79 13.75 79 16.5625 79H43.75C48.4375 79 49.375 76.1875 49.375 72.4375V24.625C49.375 20.875 46.5625 19 42.8125 19ZM24.0625 22.75H36.25V24.625H24.0625V22.75ZM29.6875 77.125C28.9416 77.125 28.2262 76.8287 27.6987 76.3012C27.1713 75.7738 26.875 75.0584 26.875 74.3125C26.875 73.5666 27.1713 72.8512 27.6987 72.3238C28.2262 71.7963 28.9416 71.5 29.6875 71.5C30.4334 71.5 31.1488 71.7963 31.6763 72.3238C32.2037 72.8512 32.5 73.5666 32.5 74.3125C32.5 75.0584 32.2037 75.7738 31.6763 76.3012C31.1488 76.8287 30.4334 77.125 29.6875 77.125V77.125ZM43.75 69.625H15.625L13.75 26.5H45.625L43.75 69.625Z" fill="#37CDEB"/>
</svg>
