<svg width="109" height="70" viewBox="0 0 109 70" fill="none" xmlns="http://www.w3.org/2000/svg">
<path d="M95.9548 6.36364C95.9548 2.12121 92.7729 0 88.5305 0H19.5911C17.4699 0 14.2881 0 14.2881 5.30303V60.4545H95.9548V6.36364ZM89.5911 55.1515H19.5911L17.4699 5.30303H91.7123L89.5911 55.1515Z" fill="#82D200"/>
<path d="M67.3182 63.6364C67.3182 64.697 65.197 65.7576 64.1364 65.7576H46.1061C43.9849 65.7576 42.9242 64.697 42.9242 63.6364H0.5V64.697C0.5 68.9394 1.56061 70 7.92424 70H101.258C107.621 70 108.682 68.9394 108.682 64.697V63.6364H67.3182ZM103.379 66.8182H94.8939V65.7576H103.379V66.8182Z" fill="#82D200"/>
</svg>
